#!OML:ASF X:\2005_08_12_Meinard\c3d\meinard.ASF
:FULLY-SPECIFIED
:DEGREES
1476
root -2.08056 17.5966 -5.8469 -32.4208 -64.7405 19.0922
lowerback 32.8571 -2.80987 4.21756
upperback 2.61112 -2.90223 -3.4046
thorax -14.4926 -1.74515 -4.75291
lowerneck 2.2544 -18.646 7.27964
upperneck -10.9512 -23.9298 9.40388
head -3.66171 -12.5523 2.84927
rclavicle 8.74653e-015 1.70955e-014
rhumerus 38.0135 0.442612 11.4919
rradius 103.082
rwrist 20.9802
rhand -27.4304 -5.10701
rfingers 7.12502
rthumb -0.835751 -35.0851
lclavicle 8.74653e-015 1.70955e-014
lhumerus 163.442 161.817 235.831
lradius 20.0989
lwrist -33.8526
lhand -13.4373 -17.9006
lfingers 7.12502
lthumb 12.6717 11.695
rfemur 3.69125 -12.7972 10.191
rtibia 29.3728
rfoot -10.8856 9.78027
rtoes -1.88238
lfemur 11.7623 -2.21105 -11.1233
ltibia 26.7395
lfoot 11.9348 11.3858
ltoes -25.9224
1477
root -2.04401 17.5933 -5.83165 -32.2723 -64.7842 18.9258
lowerback 32.9021 -2.84644 4.29773
upperback 2.61997 -2.91959 -3.40691
thorax -14.5066 -1.75783 -4.7904
lowerneck 2.41001 -18.5833 7.09158
upperneck -10.9958 -23.8321 9.50844
head -3.66892 -12.5066 2.9162
rclavicle 7.20097e-014 -2.34566e-014
rhumerus 37.3229 -1.30724 9.80073
rradius 100.851
rwrist 19.5742
rhand -26.9399 -5.6366
rfingers 7.12502
rthumb -0.362035 -35.616
lclavicle 7.20097e-014 -2.34566e-014
lhumerus 163.342 162.028 235.926
lradius 20.1513
lwrist -34.0672
lhand -13.6312 -18.0109
lfingers 7.12502
lthumb 12.4847 11.5962
rfemur 3.61776 -12.8293 10.1927
rtibia 29.3314
rfoot -10.8309 9.81412
rtoes -1.96594
lfemur 11.8523 -2.19479 -11.0702
ltibia 26.696
lfoot 11.5487 10.7509
ltoes -25.9901
1478
root -2.00772 17.5919 -5.81729 -32.1239 -64.8273 18.7518
lowerback 32.9519 -2.87987 4.36717
upperback 2.62961 -2.93647 -3.40794
thorax -14.5212 -1.76963 -4.82068
lowerneck 2.46881 -18.5256 6.90569
upperneck -10.984 -23.7565 9.58623
head -3.64162 -12.4674 2.95872
rclavicle -4.19436e-014 -4.37326e-015
rhumerus 36.6608 -3.09462 8.15319
rradius 98.5276
rwrist 18.091
rhand -26.3011 -6.03114
rfingers 7.12502
rthumb 0.25494 -36.0107
lclavicle -4.19436e-014 -4.37326e-015
lhumerus 163.231 161.967 235.986
lradius 20.1349
lwrist -34.632
lhand -13.8276 -18.1928
lfingers 7.12502
lthumb 12.2953 11.4258
rfemur 3.55251 -12.8318 10.2043
rtibia 29.2921
rfoot -10.8155 9.82363
rtoes -1.97097
lfemur 11.9443 -2.16007 -11.0083
ltibia 26.6515
lfoot 11.1916 10.036
ltoes -26.0891
1479
root -1.97078 17.589 -5.80175 -31.9964 -64.8827 18.5925
lowerback 33.0055 -2.91094 4.41818
upperback 2.63633 -2.95619 -3.40466
thorax -14.54 -1.78159 -4.83485
lowerneck 2.38386 -18.4529 6.77658
upperneck -10.8601 -23.6842 9.57194
head -3.56753 -12.4215 2.94137
rclavicle 8.44835e-015 -1.19271e-015
rhumerus 36.0638 -4.93459 6.5684
rradius 96.1231
rwrist 16.6212
rhand -25.6292 -6.21925
rfingers 7.12502
rthumb 0.903887 -36.1971
lclavicle 8.44835e-015 -1.19271e-015
lhumerus 163.08 161.989 236.038
lradius 20.1348
lwrist -35.0702
lhand -13.9329 -18.3288
lfingers 7.12502
lthumb 12.1938 11.2958
rfemur 3.49028 -12.8454 10.208
rtibia 29.2528
rfoot -10.7836 9.85923
rtoes -2.13139
lfemur 12.0602 -2.10315 -10.9484
ltibia 26.5982
lfoot 10.8178 9.29118
ltoes -26.2956
1480
root -1.93267 17.5866 -5.78549 -31.8276 -64.9357 18.4136
lowerback 33.0395 -2.94101 4.47732
upperback 2.63738 -2.97217 -3.40342
thorax -14.5572 -1.79242 -4.85782
lowerneck 2.20816 -18.3825 6.68533
upperneck -10.6688 -23.6281 9.51384
head -3.46342 -12.3792 2.89121
rclavicle 7.49915e-014 4.77083e-015
rhumerus 35.5366 -6.822 5.00834
rradius 93.6299
rwrist 15.2814
rhand -24.8787 -6.22365
rfingers 7.12502
rthumb 1.62873 -36.1972
lclavicle 7.49915e-014 4.77083e-015
lhumerus 162.945 161.956 236.091
lradius 20.1173
lwrist -35.5806
lhand -13.9583 -18.4531
lfingers 7.12502
lthumb 12.1693 11.1729
rfemur 3.40052 -12.8475 10.2269
rtibia 29.21
rfoot -10.762 9.86407
rtoes -2.24737
lfemur 12.1498 -2.03753 -10.8836
ltibia 26.5468
lfoot 10.4425 8.53152
ltoes -26.4732
1481
root -1.89475 17.5847 -5.76937 -31.7063 -65.0139 18.2549
lowerback 33.0869 -2.95606 4.49305
upperback 2.65032 -2.98136 -3.38065
thorax -14.5616 -1.79671 -4.83596
lowerneck 2.09105 -18.2979 6.56336
upperneck -10.5304 -23.5429 9.49216
head -3.38117 -12.326 2.86612
rclavicle 1.60519e-014 -2.46493e-014
rhumerus 35.1314 -8.73893 3.54523
rradius 91.0474
rwrist 14.1068
rhand -24.2207 -6.12001
rfingers 7.12502
rthumb 2.26417 -36.0877
lclavicle 1.60519e-014 -2.46493e-014
lhumerus 162.783 161.816 236.146
lradius 20.0728
lwrist -36.1555
lhand -13.9587 -18.5566
lfingers 7.12502
lthumb 12.1689 11.0694
rfemur 3.33969 -12.8151 10.2503
rtibia 29.1571
rfoot -10.7209 9.86148
rtoes -2.38228
lfemur 12.276 -1.96878 -10.8209
ltibia 26.5065
lfoot 10.0357 7.76351
ltoes -26.7557
1482
root -1.85559 17.5827 -5.75235 -31.5924 -65.0918 18.1182
lowerback 33.1284 -2.96731 4.5102
upperback 2.65169 -2.98847 -3.37947
thorax -14.5788 -1.80123 -4.83978
lowerneck 1.9426 -18.2219 6.51261
upperneck -10.3186 -23.4751 9.41996
head -3.28309 -12.2781 2.81026
rclavicle -1.90336e-014 3.97569e-015
rhumerus 34.8607 -10.6615 2.10621
rradius 88.3121
rwrist 13.093
rhand -23.6542 -5.97075
rfingers 7.12502
rthumb 2.81137 -35.932
lclavicle -1.90336e-014 3.97569e-015
lhumerus 162.637 161.83 236.19
lradius 20.022
lwrist -36.662
lhand -13.8714 -18.603
lfingers 7.12502
lthumb 12.2531 11.018
rfemur 3.26092 -12.8031 10.255
rtibia 29.1061
rfoot -10.6671 9.88892
rtoes -2.5758
lfemur 12.3946 -1.85986 -10.7645
ltibia 26.4676
lfoot 9.65367 6.97247
ltoes -27.1228
1483
root -1.81537 17.5805 -5.73491 -31.4525 -65.1998 17.9305
lowerback 33.1823 -2.9779 4.54817
upperback 2.66038 -2.98503 -3.36655
thorax -14.5911 -1.8018 -4.84613
lowerneck 1.82573 -18.1443 6.45696
upperneck -10.1312 -23.3998 9.3574
head -3.19804 -12.2282 2.764
rclavicle 1.36664e-014 4.77083e-015
rhumerus 34.7628 -12.5647 0.735958
rradius 85.3975
rwrist 12.3043
rhand -23.2596 -5.93205
rfingers 7.12502
rthumb 3.19244 -35.8879
lclavicle 1.36664e-014 4.77083e-015
lhumerus 162.48 161.641 236.222
lradius 19.9645
lwrist -37.3127
lhand -13.7324 -18.6261
lfingers 7.12502
lthumb 12.3871 10.9869
rfemur 3.19625 -12.7824 10.2903
rtibia 29.0559
rfoot -10.5899 9.93471
rtoes -2.65624
lfemur 12.5384 -1.80109 -10.6998
ltibia 26.4344
lfoot 9.2343 6.23758
ltoes -27.3928
1484
root -1.77317 17.5789 -5.71719 -31.4079 -65.3081 17.8553
lowerback 33.2437 -2.97105 4.53749
upperback 2.66418 -2.97884 -3.36572
thorax -14.611 -1.79892 -4.8404
lowerneck 1.71318 -18.0553 6.47165
upperneck -9.97067 -23.3062 9.24858
head -3.13897 -12.1706 2.70104
rclavicle -1.15792e-014 1.23246e-014
rhumerus 34.8083 -14.3968 -0.534146
rradius 82.3491
rwrist 11.6588
rhand -23.1352 -6.09161
rfingers 7.12502
rthumb 3.31253 -36.0456
lclavicle -1.15792e-014 1.23246e-014
lhumerus 162.346 161.57 236.26
lradius 19.8797
lwrist -37.8365
lhand -13.5597 -18.602
lfingers 7.12502
lthumb 12.5537 11.0008
rfemur 3.11131 -12.7322 10.2777
rtibia 29.0034
rfoot -10.4848 9.97485
rtoes -2.75879
lfemur 12.6755 -1.70808 -10.6779
ltibia 26.4178
lfoot 8.81975 5.52833
ltoes -27.5561
1485
root -1.72964 17.5761 -5.69876 -31.3093 -65.4403 17.7261
lowerback 33.2968 -2.96056 4.5398
upperback 2.66006 -2.96106 -3.35278
thorax -14.6348 -1.7914 -4.8337
lowerneck 1.66011 -17.969 6.54532
upperneck -9.85074 -23.2068 9.10055
head -3.11771 -12.1125 2.63244
rclavicle 4.84538e-014 1.11319e-014
rhumerus 34.995 -16.139 -1.70346
rradius 79.1996
rwrist 11.023
rhand -23.2371 -6.51132
rfingers 7.12502
rthumb 3.21416 -36.4668
lclavicle 4.84538e-014 1.11319e-014
lhumerus 162.192 161.35 236.283
lradius 19.765
lwrist -38.5402
lhand -13.4 -18.5706
lfingers 7.12502
lthumb 12.7076 11.0228
rfemur 3.01342 -12.7145 10.2934
rtibia 28.9482
rfoot -10.3844 10.0333
rtoes -2.86951
lfemur 12.8127 -1.60688 -10.6313
ltibia 26.4118
lfoot 8.39755 4.83047
ltoes -27.7738
1486
root -1.68507 17.5749 -5.67986 -31.2216 -65.5766 17.6006
lowerback 33.3464 -2.95717 4.54919
upperback 2.66321 -2.9525 -3.35334
thorax -14.6511 -1.7887 -4.84175
lowerneck 1.58889 -17.8737 6.6321
upperneck -9.7 -23.0978 8.96106
head -3.08283 -12.0492 2.55976
rclavicle 2.01766e-014 1.39149e-014
rhumerus 35.2918 -17.756 -2.8071
rradius 76.0206
rwrist 10.3793
rhand -23.5572 -7.23704
rfingers 7.12502
rthumb 2.905 -37.197
lclavicle 2.01766e-014 1.39149e-014
lhumerus 162.07 160.999 236.258
lradius 19.5986
lwrist -39.3202
lhand -13.185 -18.5017
lfingers 7.12502
lthumb 12.9149 11.0786
rfemur 2.91477 -12.6579 10.3162
rtibia 28.8989
rfoot -10.2872 10.0637
rtoes -2.99271
lfemur 12.9572 -1.51789 -10.5974
ltibia 26.4155
lfoot 7.9776 4.17445
ltoes -27.996
1487
root -1.64052 17.5735 -5.66113 -31.1092 -65.7305 17.4553
lowerback 33.3662 -2.94263 4.55073
upperback 2.67618 -2.93088 -3.33678
thorax -14.6401 -1.77864 -4.83307
lowerneck 1.5322 -17.7776 6.70976
upperneck -9.59135 -22.9851 8.81225
head -3.0653 -11.9853 2.49091
rclavicle -5.95857e-014 5.36719e-014
rhumerus 35.7035 -19.2734 -3.84395
rradius 72.8121
rwrist 9.70744
rhand -24.0285 -8.22708
rfingers 7.12502
rthumb 2.44982 -38.1928
lclavicle -5.95857e-014 5.36719e-014
lhumerus 161.945 160.577 236.252
lradius 19.426
lwrist -40.1572
lhand -12.9857 -18.3553
lfingers 7.12502
lthumb 13.1069 11.2128
rfemur 2.80279 -12.5791 10.3577
rtibia 28.8497
rfoot -10.1653 10.0866
rtoes -3.05036
lfemur 13.1067 -1.38953 -10.5377
ltibia 26.4312
lfoot 7.5657 3.50949
ltoes -28.21
1488
root -1.59445 17.5707 -5.64176 -31.0696 -65.8791 17.3527
lowerback 33.4286 -2.91979 4.52786
upperback 2.67717 -2.90766 -3.32983
thorax -14.6605 -1.76744 -4.8214
lowerneck 1.52645 -17.6827 6.81249
upperneck -9.47887 -22.8681 8.65086
head -3.06023 -11.9198 2.42158
rclavicle -3.41413e-014 1.47101e-014
rhumerus 36.1182 -20.621 -4.78057
rradius 69.6517
rwrist 9.01154
rhand -24.6449 -9.37605
rfingers 7.12502
rthumb 1.8545 -39.3477
lclavicle -3.41413e-014 1.47101e-014
lhumerus 161.825 160.241 236.241
lradius 19.211
lwrist -40.8858
lhand -12.7669 -18.1719
lfingers 7.12502
lthumb 13.3179 11.3825
rfemur 2.73267 -12.5121 10.3612
rtibia 28.792
rfoot -10.0398 10.1426
rtoes -3.16195
lfemur 13.2851 -1.27884 -10.5148
ltibia 26.4655
lfoot 7.20196 2.87487
ltoes -28.5346
1489
root -1.54919 17.5691 -5.62194 -30.972 -66.0024 17.2151
lowerback 33.4165 -2.89988 4.50367
upperback 2.69089 -2.89088 -3.32085
thorax -14.6356 -1.75799 -4.80583
lowerneck 1.56848 -17.5849 6.88806
upperneck -9.40759 -22.74 8.51911
head -3.07096 -11.8514 2.37193
rclavicle -8.2595e-014 1.15295e-014
rhumerus 36.5653 -21.8455 -5.66123
rradius 66.5429
rwrist 8.29979
rhand -25.3081 -10.5833
rfingers 7.12502
rthumb 1.21398 -40.5596
lclavicle -8.2595e-014 1.15295e-014
lhumerus 161.717 159.876 236.245
lradius 19.0143
lwrist -41.5646
lhand -12.5264 -17.8757
lfingers 7.12502
lthumb 13.5497 11.6634
rfemur 2.63681 -12.45 10.3787
rtibia 28.7343
rfoot -9.92074 10.1535
rtoes -3.27681
lfemur 13.438 -1.19077 -10.4927
ltibia 26.5133
lfoot 6.83311 2.26643
ltoes -28.8552
1490
root -1.50371 17.5678 -5.60136 -30.8676 -66.1498 17.0714
lowerback 33.3716 -2.87594 4.48053
upperback 2.71787 -2.86986 -3.31064
thorax -14.5809 -1.74613 -4.79201
lowerneck 1.61021 -17.4825 6.90898
upperneck -9.30213 -22.6094 8.40183
head -3.06077 -11.7794 2.32848
rclavicle 5.23798e-014 -3.33958e-014
rhumerus 37.0408 -22.9685 -6.47772
rradius 63.5049
rwrist 7.62132
rhand -25.985 -11.7862
rfingers 7.12502
rthumb 0.560267 -41.7652
lclavicle 5.23798e-014 -3.33958e-014
lhumerus 161.666 159.778 236.293
lradius 18.7689
lwrist -41.9449
lhand -12.3113 -17.5132
lfingers 7.12502
lthumb 13.757 12.012
rfemur 2.53959 -12.3772 10.4027
rtibia 28.67
rfoot -9.7902 10.1914
rtoes -3.37364
lfemur 13.594 -1.06571 -10.4602
ltibia 26.5903
lfoot 6.45861 1.66818
ltoes -29.3442
